
STARTFONT 2.1
FONT -misc-call3327-medium-r-normal--16-160-75-75-c-160-iso10646-1
SIZE 16 96 96
FONTBOUNDINGBOX 16 16 0 0
STARTPROPERTIES 2
FONT_ASCENT 16
FONT_DESCENT 0
ENDPROPERTIES
CHARS 128

STARTCHAR U+0000
ENCODING 0
SWIDTH 1000 0
DWIDTH 16 0
BBX 16 16 0 0
BITMAP
00
00
00
00
00
00
00
00
00
00
00
00
00
00
00
00
00
00
00
00
00
00
00
00
00
00
00
00
00
00
00
00
ENDCHAR

STARTCHAR U+0001
ENCODING 1
SWIDTH 1000 0
DWIDTH 16 0
BBX 16 16 0 0
BITMAP
30
00
30
00
30
00
30
00
30
00
30
00
30
00
30
00
00
00
00
00
00
00
00
00
00
00
00
00
00
00
00
00
ENDCHAR

STARTCHAR U+0002
ENCODING 2
SWIDTH 1000 0
DWIDTH 16 0
BBX 16 16 0 0
BITMAP
33
00
33
00
33
00
33
00
33
00
33
00
33
00
33
00
00
00
00
00
00
00
00
00
00
00
00
00
00
00
00
00
ENDCHAR

STARTCHAR U+0003
ENCODING 3
SWIDTH 1000 0
DWIDTH 16 0
BBX 16 16 0 0
BITMAP
30
00
30
00
30
00
30
00
30
00
30
00
30
00
30
00
00
00
00
00
00
00
00
00
00
00
00
00
00
00
00
00
ENDCHAR

STARTCHAR U+0004
ENCODING 4
SWIDTH 1000 0
DWIDTH 16 0
BBX 16 16 0 0
BITMAP
33
00
33
00
33
00
33
00
33
00
33
00
33
00
33
00
00
00
00
00
00
00
00
00
00
00
00
00
00
00
00
00
ENDCHAR

STARTCHAR U+0005
ENCODING 5
SWIDTH 1000 0
DWIDTH 16 0
BBX 16 16 0 0
BITMAP
0C
00
0C
00
0C
00
0C
00
0C
00
0C
00
0C
00
0C
00
00
00
00
00
00
00
00
00
00
00
00
00
00
00
00
00
ENDCHAR

STARTCHAR U+0006
ENCODING 6
SWIDTH 1000 0
DWIDTH 16 0
BBX 16 16 0 0
BITMAP
33
00
33
00
33
00
33
00
33
00
33
00
33
00
33
00
00
00
00
00
00
00
00
00
00
00
00
00
00
00
00
00
ENDCHAR

STARTCHAR U+0007
ENCODING 7
SWIDTH 1000 0
DWIDTH 16 0
BBX 16 16 0 0
BITMAP
0C
00
0C
00
0C
00
0C
00
0C
00
0C
00
0C
00
0C
00
00
00
00
00
00
00
00
00
00
00
00
00
00
00
00
00
ENDCHAR

STARTCHAR U+0008
ENCODING 8
SWIDTH 1000 0
DWIDTH 16 0
BBX 16 16 0 0
BITMAP
33
00
33
00
33
00
33
00
33
00
33
00
33
00
33
00
00
00
00
00
00
00
00
00
00
00
00
00
00
00
00
00
ENDCHAR

STARTCHAR U+0009
ENCODING 9
SWIDTH 1000 0
DWIDTH 16 0
BBX 16 16 0 0
BITMAP
00
00
00
00
00
00
00
00
00
00
00
00
00
00
00
00
03
00
03
00
03
00
03
00
7F
F8
7F
F8
00
00
00
00
ENDCHAR

STARTCHAR U+000a
ENCODING 10
SWIDTH 1000 0
DWIDTH 16 0
BBX 16 16 0 0
BITMAP
00
00
00
00
00
00
00
00
00
00
00
00
00
00
00
00
0C
C0
0C
C0
0C
C0
0C
C0
7F
F8
7F
F8
00
00
00
00
ENDCHAR

STARTCHAR U+000b
ENCODING 11
SWIDTH 1000 0
DWIDTH 16 0
BBX 16 16 0 0
BITMAP
00
00
00
00
00
00
00
00
00
00
00
00
00
00
00
00
00
00
00
00
00
00
00
00
7F
F8
7F
F8
03
00
03
00
ENDCHAR

STARTCHAR U+000c
ENCODING 12
SWIDTH 1000 0
DWIDTH 16 0
BBX 16 16 0 0
BITMAP
00
00
00
00
00
00
00
00
00
00
00
00
00
00
00
00
00
00
00
00
00
00
00
00
7F
F8
7F
F8
0C
C0
0C
C0
ENDCHAR

STARTCHAR U+000d
ENCODING 13
SWIDTH 1000 0
DWIDTH 16 0
BBX 16 16 0 0
BITMAP
00
00
00
00
00
00
00
00
00
00
00
00
00
00
00
00
00
00
00
00
00
00
00
00
7F
F8
7F
F8
00
00
00
00
ENDCHAR

STARTCHAR U+000e
ENCODING 14
SWIDTH 1000 0
DWIDTH 16 0
BBX 16 16 0 0
BITMAP
0C
00
0C
00
0C
00
0C
00
0C
00
0C
00
0C
00
0C
00
00
00
00
00
00
00
00
00
00
00
00
00
00
00
00
00
ENDCHAR

STARTCHAR U+000f
ENCODING 15
SWIDTH 1000 0
DWIDTH 16 0
BBX 16 16 0 0
BITMAP
00
00
00
00
FC
30
FC
30
0C
30
0C
30
0C
30
0C
30
0C
CC
0C
CC
33
00
33
00
00
00
00
00
00
00
00
00
ENDCHAR

STARTCHAR U+0010
ENCODING 16
SWIDTH 1000 0
DWIDTH 16 0
BBX 16 16 0 0
BITMAP
00
00
00
00
61
F8
61
F8
60
60
60
60
60
60
60
60
61
98
61
98
7F
98
7F
98
00
00
00
00
00
00
00
00
ENDCHAR

STARTCHAR U+0011
ENCODING 17
SWIDTH 1000 0
DWIDTH 16 0
BBX 16 16 0 0
BITMAP
00
00
00
00
60
60
60
60
61
F8
61
F8
60
60
60
60
61
98
61
98
7E
60
7E
60
00
00
00
00
00
00
00
00
ENDCHAR

STARTCHAR U+0012
ENCODING 18
SWIDTH 1000 0
DWIDTH 16 0
BBX 16 16 0 0
BITMAP
00
00
00
00
7F
F8
7F
F8
06
18
06
18
7E
18
7E
18
60
18
60
18
7E
18
7E
18
00
00
00
00
00
00
00
00
ENDCHAR

STARTCHAR U+0013
ENCODING 19
SWIDTH 1000 0
DWIDTH 16 0
BBX 16 16 0 0
BITMAP
00
00
00
00
FC
FC
FC
FC
0C
CC
0C
CC
FC
CC
FC
CC
C0
CC
C0
CC
FC
FC
FC
FC
00
00
00
00
00
00
00
00
ENDCHAR

STARTCHAR U+0014
ENCODING 20
SWIDTH 1000 0
DWIDTH 16 0
BBX 16 16 0 0
BITMAP
00
00
00
00
FC
CC
FC
CC
0C
CC
0C
CC
FC
FC
FC
FC
C0
CC
C0
CC
FC
FC
FC
FC
00
00
00
00
00
00
00
00
ENDCHAR

STARTCHAR U+0015
ENCODING 21
SWIDTH 1000 0
DWIDTH 16 0
BBX 16 16 0 0
BITMAP
00
00
00
00
FC
30
FC
30
0C
30
0C
30
FC
30
FC
30
C0
CC
C0
CC
FF
0C
FF
0C
00
00
00
00
00
00
00
00
ENDCHAR

STARTCHAR U+0016
ENCODING 22
SWIDTH 1000 0
DWIDTH 16 0
BBX 16 16 0 0
BITMAP
00
00
00
00
FC
FC
FC
FC
0C
00
0C
00
FC
FC
FC
FC
C0
C0
C0
C0
FC
FC
FC
FC
00
00
00
00
00
00
00
00
ENDCHAR

STARTCHAR U+0017
ENCODING 23
SWIDTH 1000 0
DWIDTH 16 0
BBX 16 16 0 0
BITMAP
00
00
00
00
FF
FC
FF
FC
0F
30
0F
30
FF
30
FF
30
C3
30
C3
30
FF
FC
FF
FC
00
00
00
00
00
00
00
00
ENDCHAR

STARTCHAR U+0018
ENCODING 24
SWIDTH 1000 0
DWIDTH 16 0
BBX 16 16 0 0
BITMAP
00
00
00
00
FC
30
FC
30
0C
FC
0C
FC
FC
30
FC
30
C0
CC
C0
CC
FC
30
FC
30
00
00
00
00
00
00
00
00
ENDCHAR

STARTCHAR U+0019
ENCODING 25
SWIDTH 1000 0
DWIDTH 16 0
BBX 16 16 0 0
BITMAP
00
00
00
00
CC
30
CC
30
CC
30
CC
30
FC
30
FC
30
CC
CC
CC
CC
FC
CC
FC
CC
00
00
00
00
00
00
00
00
ENDCHAR

STARTCHAR U+001a
ENCODING 26
SWIDTH 1000 0
DWIDTH 16 0
BBX 16 16 0 0
BITMAP
00
00
00
00
00
00
00
00
00
00
00
00
00
00
00
00
00
00
00
00
00
00
00
00
00
00
00
00
00
00
00
00
ENDCHAR

STARTCHAR U+001b
ENCODING 27
SWIDTH 1000 0
DWIDTH 16 0
BBX 16 16 0 0
BITMAP
00
00
00
00
00
00
00
00
00
00
00
00
00
00
00
00
00
00
00
00
00
00
00
00
00
00
00
00
00
00
00
00
ENDCHAR

STARTCHAR U+001c
ENCODING 28
SWIDTH 1000 0
DWIDTH 16 0
BBX 16 16 0 0
BITMAP
00
00
00
00
00
00
00
00
00
00
00
00
00
00
00
00
00
00
00
00
00
00
00
00
00
00
00
00
00
00
00
00
ENDCHAR

STARTCHAR U+001d
ENCODING 29
SWIDTH 1000 0
DWIDTH 16 0
BBX 16 16 0 0
BITMAP
00
00
00
00
00
00
00
00
00
00
00
00
00
00
00
00
00
00
00
00
00
00
00
00
00
00
00
00
00
00
00
00
ENDCHAR

STARTCHAR U+001e
ENCODING 30
SWIDTH 1000 0
DWIDTH 16 0
BBX 16 16 0 0
BITMAP
00
00
00
00
00
00
00
00
00
00
00
00
00
00
00
00
03
00
03
00
0F
C0
0F
C0
3F
F0
3F
F0
FF
FC
FF
FC
ENDCHAR

STARTCHAR U+001f
ENCODING 31
SWIDTH 1000 0
DWIDTH 16 0
BBX 16 16 0 0
BITMAP
00
00
00
00
00
00
00
00
00
00
00
00
00
00
00
00
00
00
00
00
00
00
00
00
00
00
00
00
00
00
00
00
ENDCHAR

STARTCHAR U+0020
ENCODING 32
SWIDTH 1000 0
DWIDTH 16 0
BBX 16 16 0 0
BITMAP
00
00
00
00
00
00
00
00
00
00
00
00
00
00
00
00
00
00
00
00
00
00
00
00
00
00
00
00
00
00
00
00
ENDCHAR

STARTCHAR U+0021
ENCODING 33
SWIDTH 1000 0
DWIDTH 16 0
BBX 16 16 0 0
BITMAP
03
00
03
00
03
00
03
00
03
00
03
00
03
00
03
00
03
00
03
00
00
00
00
00
03
00
03
00
00
00
00
00
ENDCHAR

STARTCHAR U+0022
ENCODING 34
SWIDTH 1000 0
DWIDTH 16 0
BBX 16 16 0 0
BITMAP
0C
C0
0C
C0
0C
C0
0C
C0
0C
C0
0C
C0
00
00
00
00
00
00
00
00
00
00
00
00
00
00
00
00
00
00
00
00
ENDCHAR

STARTCHAR U+0023
ENCODING 35
SWIDTH 1000 0
DWIDTH 16 0
BBX 16 16 0 0
BITMAP
0C
C0
0C
C0
0C
C0
0C
C0
3F
F0
3F
F0
0C
C0
0C
C0
3F
F0
3F
F0
0C
C0
0C
C0
0C
C0
0C
C0
00
00
00
00
ENDCHAR

STARTCHAR U+0024
ENCODING 36
SWIDTH 1000 0
DWIDTH 16 0
BBX 16 16 0 0
BITMAP
03
00
03
00
0F
F0
0F
F0
33
00
33
00
0F
C0
0F
C0
03
30
03
30
3F
C0
3F
C0
03
00
03
00
00
00
00
00
ENDCHAR

STARTCHAR U+0025
ENCODING 37
SWIDTH 1000 0
DWIDTH 16 0
BBX 16 16 0 0
BITMAP
3C
00
3C
00
3C
30
3C
30
00
C0
00
C0
03
00
03
00
0C
00
0C
00
30
F0
30
F0
00
F0
00
F0
00
00
00
00
ENDCHAR

STARTCHAR U+0026
ENCODING 38
SWIDTH 1000 0
DWIDTH 16 0
BBX 16 16 0 0
BITMAP
0C
00
0C
00
33
00
33
00
33
00
33
00
0C
00
0C
00
33
30
33
30
30
C0
30
C0
0F
30
0F
30
00
00
00
00
ENDCHAR

STARTCHAR U+0027
ENCODING 39
SWIDTH 1000 0
DWIDTH 16 0
BBX 16 16 0 0
BITMAP
03
00
03
00
03
00
03
00
03
00
03
00
00
00
00
00
00
00
00
00
00
00
00
00
00
00
00
00
00
00
00
00
ENDCHAR

STARTCHAR U+0028
ENCODING 40
SWIDTH 1000 0
DWIDTH 16 0
BBX 16 16 0 0
BITMAP
03
00
03
00
0C
00
0C
00
30
00
30
00
30
00
30
00
30
00
30
00
0C
00
0C
00
03
00
03
00
00
00
00
00
ENDCHAR

STARTCHAR U+0029
ENCODING 41
SWIDTH 1000 0
DWIDTH 16 0
BBX 16 16 0 0
BITMAP
03
00
03
00
00
C0
00
C0
00
30
00
30
00
30
00
30
00
30
00
30
00
C0
00
C0
03
00
03
00
00
00
00
00
ENDCHAR

STARTCHAR U+002a
ENCODING 42
SWIDTH 1000 0
DWIDTH 16 0
BBX 16 16 0 0
BITMAP
03
00
03
00
33
30
33
30
0F
C0
0F
C0
03
00
03
00
0F
C0
0F
C0
33
30
33
30
03
00
03
00
00
00
00
00
ENDCHAR

STARTCHAR U+002b
ENCODING 43
SWIDTH 1000 0
DWIDTH 16 0
BBX 16 16 0 0
BITMAP
00
00
00
00
03
00
03
00
03
00
03
00
3F
F0
3F
F0
03
00
03
00
03
00
03
00
00
00
00
00
00
00
00
00
ENDCHAR

STARTCHAR U+002c
ENCODING 44
SWIDTH 1000 0
DWIDTH 16 0
BBX 16 16 0 0
BITMAP
00
00
00
00
00
00
00
00
00
00
00
00
00
00
00
00
03
00
03
00
03
00
03
00
0C
00
0C
00
00
00
00
00
ENDCHAR

STARTCHAR U+002d
ENCODING 45
SWIDTH 1000 0
DWIDTH 16 0
BBX 16 16 0 0
BITMAP
00
00
00
00
00
00
00
00
00
00
00
00
3F
F0
3F
F0
00
00
00
00
00
00
00
00
00
00
00
00
00
00
00
00
ENDCHAR

STARTCHAR U+002e
ENCODING 46
SWIDTH 1000 0
DWIDTH 16 0
BBX 16 16 0 0
BITMAP
00
00
00
00
00
00
00
00
00
00
00
00
00
00
00
00
00
00
00
00
00
00
00
00
03
00
03
00
00
00
00
00
ENDCHAR

STARTCHAR U+002f
ENCODING 47
SWIDTH 1000 0
DWIDTH 16 0
BBX 16 16 0 0
BITMAP
00
00
00
00
00
30
00
30
00
C0
00
C0
03
00
03
00
0C
00
0C
00
30
00
30
00
00
00
00
00
00
00
00
00
ENDCHAR

STARTCHAR U+0030
ENCODING 48
SWIDTH 1000 0
DWIDTH 16 0
BBX 16 16 0 0
BITMAP
0F
C0
0F
C0
30
30
30
30
30
F0
30
F0
33
30
33
30
3C
30
3C
30
30
30
30
30
0F
C0
0F
C0
00
00
00
00
ENDCHAR

STARTCHAR U+0031
ENCODING 49
SWIDTH 1000 0
DWIDTH 16 0
BBX 16 16 0 0
BITMAP
03
00
03
00
0F
00
0F
00
03
00
03
00
03
00
03
00
03
00
03
00
03
00
03
00
0F
C0
0F
C0
00
00
00
00
ENDCHAR

STARTCHAR U+0032
ENCODING 50
SWIDTH 1000 0
DWIDTH 16 0
BBX 16 16 0 0
BITMAP
0F
C0
0F
C0
30
30
30
30
00
30
00
30
03
C0
03
C0
0C
00
0C
00
30
00
30
00
3F
F0
3F
F0
00
00
00
00
ENDCHAR

STARTCHAR U+0033
ENCODING 51
SWIDTH 1000 0
DWIDTH 16 0
BBX 16 16 0 0
BITMAP
3F
F0
3F
F0
00
30
00
30
00
C0
00
C0
03
C0
03
C0
00
30
00
30
30
30
30
30
0F
C0
0F
C0
00
00
00
00
ENDCHAR

STARTCHAR U+0034
ENCODING 52
SWIDTH 1000 0
DWIDTH 16 0
BBX 16 16 0 0
BITMAP
00
C0
00
C0
03
C0
03
C0
0C
C0
0C
C0
30
C0
30
C0
3F
F0
3F
F0
00
C0
00
C0
00
C0
00
C0
00
00
00
00
ENDCHAR

STARTCHAR U+0035
ENCODING 53
SWIDTH 1000 0
DWIDTH 16 0
BBX 16 16 0 0
BITMAP
3F
F0
3F
F0
30
00
30
00
3F
C0
3F
C0
00
30
00
30
00
30
00
30
30
30
30
30
0F
C0
0F
C0
00
00
00
00
ENDCHAR

STARTCHAR U+0036
ENCODING 54
SWIDTH 1000 0
DWIDTH 16 0
BBX 16 16 0 0
BITMAP
03
F0
03
F0
0C
00
0C
00
30
00
30
00
3F
C0
3F
C0
30
30
30
30
30
30
30
30
0F
C0
0F
C0
00
00
00
00
ENDCHAR

STARTCHAR U+0037
ENCODING 55
SWIDTH 1000 0
DWIDTH 16 0
BBX 16 16 0 0
BITMAP
3F
F0
3F
F0
00
30
00
30
00
C0
00
C0
03
00
03
00
0C
00
0C
00
0C
00
0C
00
0C
00
0C
00
00
00
00
00
ENDCHAR

STARTCHAR U+0038
ENCODING 56
SWIDTH 1000 0
DWIDTH 16 0
BBX 16 16 0 0
BITMAP
0F
C0
0F
C0
30
30
30
30
30
30
30
30
0F
C0
0F
C0
30
30
30
30
30
30
30
30
0F
C0
0F
C0
00
00
00
00
ENDCHAR

STARTCHAR U+0039
ENCODING 57
SWIDTH 1000 0
DWIDTH 16 0
BBX 16 16 0 0
BITMAP
0F
C0
0F
C0
30
30
30
30
30
30
30
30
0F
F0
0F
F0
00
30
00
30
00
C0
00
C0
3F
00
3F
00
00
00
00
00
ENDCHAR

STARTCHAR U+003a
ENCODING 58
SWIDTH 1000 0
DWIDTH 16 0
BBX 16 16 0 0
BITMAP
00
00
00
00
00
00
00
00
03
00
03
00
00
00
00
00
03
00
03
00
00
00
00
00
00
00
00
00
00
00
00
00
ENDCHAR

STARTCHAR U+003b
ENCODING 59
SWIDTH 1000 0
DWIDTH 16 0
BBX 16 16 0 0
BITMAP
00
00
00
00
00
00
00
00
03
00
03
00
00
00
00
00
03
00
03
00
03
00
03
00
0C
00
0C
00
00
00
00
00
ENDCHAR

STARTCHAR U+003c
ENCODING 60
SWIDTH 1000 0
DWIDTH 16 0
BBX 16 16 0 0
BITMAP
00
C0
00
C0
03
00
03
00
0C
00
0C
00
30
00
30
00
0C
00
0C
00
03
00
03
00
00
C0
00
C0
00
00
00
00
ENDCHAR

STARTCHAR U+003d
ENCODING 61
SWIDTH 1000 0
DWIDTH 16 0
BBX 16 16 0 0
BITMAP
00
00
00
00
00
00
00
00
3F
F0
3F
F0
00
00
00
00
3F
F0
3F
F0
00
00
00
00
00
00
00
00
00
00
00
00
ENDCHAR

STARTCHAR U+003e
ENCODING 62
SWIDTH 1000 0
DWIDTH 16 0
BBX 16 16 0 0
BITMAP
0C
00
0C
00
03
00
03
00
00
C0
00
C0
00
30
00
30
00
C0
00
C0
03
00
03
00
0C
00
0C
00
00
00
00
00
ENDCHAR

STARTCHAR U+003f
ENCODING 63
SWIDTH 1000 0
DWIDTH 16 0
BBX 16 16 0 0
BITMAP
0F
C0
0F
C0
30
30
30
30
00
C0
00
C0
03
00
03
00
03
00
03
00
00
00
00
00
03
00
03
00
00
00
00
00
ENDCHAR

STARTCHAR U+0040
ENCODING 64
SWIDTH 1000 0
DWIDTH 16 0
BBX 16 16 0 0
BITMAP
0F
C0
0F
C0
30
30
30
30
33
30
33
30
33
F0
33
F0
33
C0
33
C0
30
00
30
00
0F
F0
0F
F0
00
00
00
00
ENDCHAR

STARTCHAR U+0041
ENCODING 65
SWIDTH 1000 0
DWIDTH 16 0
BBX 16 16 0 0
BITMAP
03
00
03
00
0C
C0
0C
C0
30
30
30
30
30
30
30
30
3F
F0
3F
F0
30
30
30
30
30
30
30
30
00
00
00
00
ENDCHAR

STARTCHAR U+0042
ENCODING 66
SWIDTH 1000 0
DWIDTH 16 0
BBX 16 16 0 0
BITMAP
3F
C0
3F
C0
30
30
30
30
30
30
30
30
3F
C0
3F
C0
30
30
30
30
30
30
30
30
3F
C0
3F
C0
00
00
00
00
ENDCHAR

STARTCHAR U+0043
ENCODING 67
SWIDTH 1000 0
DWIDTH 16 0
BBX 16 16 0 0
BITMAP
0F
C0
0F
C0
30
30
30
30
30
00
30
00
30
00
30
00
30
00
30
00
30
30
30
30
0F
C0
0F
C0
00
00
00
00
ENDCHAR

STARTCHAR U+0044
ENCODING 68
SWIDTH 1000 0
DWIDTH 16 0
BBX 16 16 0 0
BITMAP
3F
C0
3F
C0
30
30
30
30
30
30
30
30
30
30
30
30
30
30
30
30
30
30
30
30
3F
C0
3F
C0
00
00
00
00
ENDCHAR

STARTCHAR U+0045
ENCODING 69
SWIDTH 1000 0
DWIDTH 16 0
BBX 16 16 0 0
BITMAP
3F
F0
3F
F0
30
00
30
00
30
00
30
00
3F
C0
3F
C0
30
00
30
00
30
00
30
00
3F
F0
3F
F0
00
00
00
00
ENDCHAR

STARTCHAR U+0046
ENCODING 70
SWIDTH 1000 0
DWIDTH 16 0
BBX 16 16 0 0
BITMAP
3F
F0
3F
F0
30
00
30
00
30
00
30
00
3F
C0
3F
C0
30
00
30
00
30
00
30
00
30
00
30
00
00
00
00
00
ENDCHAR

STARTCHAR U+0047
ENCODING 71
SWIDTH 1000 0
DWIDTH 16 0
BBX 16 16 0 0
BITMAP
0F
F0
0F
F0
30
00
30
00
30
00
30
00
30
00
30
00
30
F0
30
F0
30
30
30
30
0F
F0
0F
F0
00
00
00
00
ENDCHAR

STARTCHAR U+0048
ENCODING 72
SWIDTH 1000 0
DWIDTH 16 0
BBX 16 16 0 0
BITMAP
30
30
30
30
30
30
30
30
30
30
30
30
3F
F0
3F
F0
30
30
30
30
30
30
30
30
30
30
30
30
00
00
00
00
ENDCHAR

STARTCHAR U+0049
ENCODING 73
SWIDTH 1000 0
DWIDTH 16 0
BBX 16 16 0 0
BITMAP
0F
C0
0F
C0
03
00
03
00
03
00
03
00
03
00
03
00
03
00
03
00
03
00
03
00
0F
C0
0F
C0
00
00
00
00
ENDCHAR

STARTCHAR U+004a
ENCODING 74
SWIDTH 1000 0
DWIDTH 16 0
BBX 16 16 0 0
BITMAP
00
30
00
30
00
30
00
30
00
30
00
30
00
30
00
30
00
30
00
30
30
30
30
30
0F
C0
0F
C0
00
00
00
00
ENDCHAR

STARTCHAR U+004b
ENCODING 75
SWIDTH 1000 0
DWIDTH 16 0
BBX 16 16 0 0
BITMAP
30
30
30
30
30
C0
30
C0
33
00
33
00
3C
00
3C
00
33
00
33
00
30
C0
30
C0
30
30
30
30
00
00
00
00
ENDCHAR

STARTCHAR U+004c
ENCODING 76
SWIDTH 1000 0
DWIDTH 16 0
BBX 16 16 0 0
BITMAP
30
00
30
00
30
00
30
00
30
00
30
00
30
00
30
00
30
00
30
00
30
00
30
00
3F
F0
3F
F0
00
00
00
00
ENDCHAR

STARTCHAR U+004d
ENCODING 77
SWIDTH 1000 0
DWIDTH 16 0
BBX 16 16 0 0
BITMAP
30
30
30
30
3C
F0
3C
F0
33
30
33
30
33
30
33
30
30
30
30
30
30
30
30
30
30
30
30
30
00
00
00
00
ENDCHAR

STARTCHAR U+004e
ENCODING 78
SWIDTH 1000 0
DWIDTH 16 0
BBX 16 16 0 0
BITMAP
30
30
30
30
30
30
30
30
3C
30
3C
30
33
30
33
30
30
F0
30
F0
30
30
30
30
30
30
30
30
00
00
00
00
ENDCHAR

STARTCHAR U+004f
ENCODING 79
SWIDTH 1000 0
DWIDTH 16 0
BBX 16 16 0 0
BITMAP
0F
C0
0F
C0
30
30
30
30
30
30
30
30
30
30
30
30
30
30
30
30
30
30
30
30
0F
C0
0F
C0
00
00
00
00
ENDCHAR

STARTCHAR U+0050
ENCODING 80
SWIDTH 1000 0
DWIDTH 16 0
BBX 16 16 0 0
BITMAP
3F
C0
3F
C0
30
30
30
30
30
30
30
30
3F
C0
3F
C0
30
00
30
00
30
00
30
00
30
00
30
00
00
00
00
00
ENDCHAR

STARTCHAR U+0051
ENCODING 81
SWIDTH 1000 0
DWIDTH 16 0
BBX 16 16 0 0
BITMAP
0F
C0
0F
C0
30
30
30
30
30
30
30
30
30
30
30
30
33
30
33
30
30
C0
30
C0
0F
30
0F
30
00
00
00
00
ENDCHAR

STARTCHAR U+0052
ENCODING 82
SWIDTH 1000 0
DWIDTH 16 0
BBX 16 16 0 0
BITMAP
3F
C0
3F
C0
30
30
30
30
30
30
30
30
3F
C0
3F
C0
33
00
33
00
30
C0
30
C0
30
30
30
30
00
00
00
00
ENDCHAR

STARTCHAR U+0053
ENCODING 83
SWIDTH 1000 0
DWIDTH 16 0
BBX 16 16 0 0
BITMAP
0F
C0
0F
C0
30
30
30
30
30
00
30
00
0F
C0
0F
C0
00
30
00
30
30
30
30
30
0F
C0
0F
C0
00
00
00
00
ENDCHAR

STARTCHAR U+0054
ENCODING 84
SWIDTH 1000 0
DWIDTH 16 0
BBX 16 16 0 0
BITMAP
3F
F0
3F
F0
03
00
03
00
03
00
03
00
03
00
03
00
03
00
03
00
03
00
03
00
03
00
03
00
00
00
00
00
ENDCHAR

STARTCHAR U+0055
ENCODING 85
SWIDTH 1000 0
DWIDTH 16 0
BBX 16 16 0 0
BITMAP
30
30
30
30
30
30
30
30
30
30
30
30
30
30
30
30
30
30
30
30
30
30
30
30
0F
C0
0F
C0
00
00
00
00
ENDCHAR

STARTCHAR U+0056
ENCODING 86
SWIDTH 1000 0
DWIDTH 16 0
BBX 16 16 0 0
BITMAP
30
30
30
30
30
30
30
30
30
30
30
30
30
30
30
30
30
30
30
30
0C
C0
0C
C0
03
00
03
00
00
00
00
00
ENDCHAR

STARTCHAR U+0057
ENCODING 87
SWIDTH 1000 0
DWIDTH 16 0
BBX 16 16 0 0
BITMAP
30
30
30
30
30
30
30
30
30
30
30
30
30
30
30
30
33
30
33
30
3C
F0
3C
F0
30
30
30
30
00
00
00
00
ENDCHAR

STARTCHAR U+0058
ENCODING 88
SWIDTH 1000 0
DWIDTH 16 0
BBX 16 16 0 0
BITMAP
30
30
30
30
30
30
30
30
0C
C0
0C
C0
03
00
03
00
0C
C0
0C
C0
30
30
30
30
30
30
30
30
00
00
00
00
ENDCHAR

STARTCHAR U+0059
ENCODING 89
SWIDTH 1000 0
DWIDTH 16 0
BBX 16 16 0 0
BITMAP
30
30
30
30
30
30
30
30
0C
C0
0C
C0
03
00
03
00
03
00
03
00
03
00
03
00
03
00
03
00
00
00
00
00
ENDCHAR

STARTCHAR U+005a
ENCODING 90
SWIDTH 1000 0
DWIDTH 16 0
BBX 16 16 0 0
BITMAP
3F
F0
3F
F0
00
30
00
30
00
C0
00
C0
03
00
03
00
0C
00
0C
00
30
00
30
00
3F
F0
3F
F0
00
00
00
00
ENDCHAR

STARTCHAR U+005b
ENCODING 91
SWIDTH 1000 0
DWIDTH 16 0
BBX 16 16 0 0
BITMAP
3F
F0
3F
F0
3C
00
3C
00
3C
00
3C
00
3C
00
3C
00
3C
00
3C
00
3C
00
3C
00
3F
F0
3F
F0
00
00
00
00
ENDCHAR

STARTCHAR U+005c
ENCODING 92
SWIDTH 1000 0
DWIDTH 16 0
BBX 16 16 0 0
BITMAP
00
00
00
00
60
18
60
18
33
30
33
30
FF
FC
FF
FC
33
30
33
30
33
30
33
30
0C
C0
0C
C0
00
00
00
00
ENDCHAR

STARTCHAR U+005d
ENCODING 93
SWIDTH 1000 0
DWIDTH 16 0
BBX 16 16 0 0
BITMAP
3F
F0
3F
F0
00
F0
00
F0
00
F0
00
F0
00
F0
00
F0
00
F0
00
F0
00
F0
00
F0
3F
F0
3F
F0
00
00
00
00
ENDCHAR

STARTCHAR U+005e
ENCODING 94
SWIDTH 1000 0
DWIDTH 16 0
BBX 16 16 0 0
BITMAP
3F
F0
3F
F0
00
30
00
30
00
30
00
30
00
30
00
30
00
30
00
30
00
00
00
00
00
00
00
00
00
00
00
00
ENDCHAR

STARTCHAR U+005f
ENCODING 95
SWIDTH 1000 0
DWIDTH 16 0
BBX 16 16 0 0
BITMAP
1F
F8
1F
F8
01
98
01
98
01
98
01
98
06
60
06
60
00
00
00
00
00
00
00
00
00
00
00
00
00
00
00
00
ENDCHAR

STARTCHAR U+0060
ENCODING 96
SWIDTH 1000 0
DWIDTH 16 0
BBX 16 16 0 0
BITMAP
30
00
30
00
30
00
30
00
30
00
30
00
30
00
30
00
3F
F0
3F
F0
00
00
00
00
00
00
00
00
00
00
00
00
ENDCHAR

STARTCHAR U+0061
ENCODING 97
SWIDTH 1000 0
DWIDTH 16 0
BBX 16 16 0 0
BITMAP
3F
F0
3F
F0
30
00
30
00
30
00
30
00
30
00
30
00
3F
F0
3F
F0
00
00
00
00
00
00
00
00
00
00
00
00
ENDCHAR

STARTCHAR U+0062
ENCODING 98
SWIDTH 1000 0
DWIDTH 16 0
BBX 16 16 0 0
BITMAP
3F
F0
3F
F0
33
00
33
00
33
00
33
00
33
00
33
00
3F
F0
3F
F0
00
00
00
00
00
00
00
00
00
00
00
00
ENDCHAR

STARTCHAR U+0063
ENCODING 99
SWIDTH 1000 0
DWIDTH 16 0
BBX 16 16 0 0
BITMAP
3F
F0
3F
F0
00
30
00
30
3F
F0
3F
F0
30
00
30
00
3F
F0
3F
F0
00
00
00
00
00
00
00
00
00
00
00
00
ENDCHAR

STARTCHAR U+0064
ENCODING 100
SWIDTH 1000 0
DWIDTH 16 0
BBX 16 16 0 0
BITMAP
3F
F0
3F
F0
30
30
30
30
30
30
30
30
30
30
30
30
3F
F0
3F
F0
00
00
00
00
00
00
00
00
00
00
00
00
ENDCHAR

STARTCHAR U+0065
ENCODING 101
SWIDTH 1000 0
DWIDTH 16 0
BBX 16 16 0 0
BITMAP
30
30
30
30
30
30
30
30
3F
F0
3F
F0
30
30
30
30
3F
F0
3F
F0
00
00
00
00
00
00
00
00
00
00
00
00
ENDCHAR

STARTCHAR U+0066
ENCODING 102
SWIDTH 1000 0
DWIDTH 16 0
BBX 16 16 0 0
BITMAP
33
30
33
30
33
30
33
30
3F
F0
3F
F0
33
30
33
30
3F
F0
3F
F0
00
00
00
00
00
00
00
00
00
00
00
00
ENDCHAR

STARTCHAR U+0067
ENCODING 103
SWIDTH 1000 0
DWIDTH 16 0
BBX 16 16 0 0
BITMAP
03
00
03
00
03
00
03
00
03
00
03
00
0C
C0
0C
C0
30
30
30
30
00
00
00
00
00
00
00
00
00
00
00
00
ENDCHAR

STARTCHAR U+0068
ENCODING 104
SWIDTH 1000 0
DWIDTH 16 0
BBX 16 16 0 0
BITMAP
0C
C0
0C
C0
0C
C0
0C
C0
33
30
33
30
C3
0C
C3
0C
00
00
00
00
00
00
00
00
00
00
00
00
00
00
00
00
ENDCHAR

STARTCHAR U+0069
ENCODING 105
SWIDTH 1000 0
DWIDTH 16 0
BBX 16 16 0 0
BITMAP
0F
C0
0F
C0
30
30
30
30
30
30
30
30
30
30
30
30
0F
C0
0F
C0
00
00
00
00
00
00
00
00
00
00
00
00
ENDCHAR

STARTCHAR U+006a
ENCODING 106
SWIDTH 1000 0
DWIDTH 16 0
BBX 16 16 0 0
BITMAP
3F
F0
3F
F0
03
00
03
00
03
00
03
00
0C
C0
0C
C0
30
30
30
30
00
00
00
00
00
00
00
00
00
00
00
00
ENDCHAR

STARTCHAR U+006b
ENCODING 107
SWIDTH 1000 0
DWIDTH 16 0
BBX 16 16 0 0
BITMAP
7F
F8
7F
F8
06
60
06
60
19
80
19
80
66
60
66
60
18
18
18
18
00
00
00
00
00
00
00
00
00
00
00
00
ENDCHAR

STARTCHAR U+006c
ENCODING 108
SWIDTH 1000 0
DWIDTH 16 0
BBX 16 16 0 0
BITMAP
03
00
03
00
3F
F0
3F
F0
03
00
03
00
0C
C0
0C
C0
30
30
30
30
00
00
00
00
00
00
00
00
00
00
00
00
ENDCHAR

STARTCHAR U+006d
ENCODING 109
SWIDTH 1000 0
DWIDTH 16 0
BBX 16 16 0 0
BITMAP
1F
F8
1F
F8
00
18
00
18
1F
F8
1F
F8
00
18
00
18
00
60
00
60
00
00
00
00
00
00
00
00
00
00
00
00
ENDCHAR

STARTCHAR U+006e
ENCODING 110
SWIDTH 1000 0
DWIDTH 16 0
BBX 16 16 0 0
BITMAP
3F
F0
3F
F0
00
00
00
00
3F
F0
3F
F0
30
00
30
00
3F
F0
3F
F0
00
00
00
00
00
00
00
00
00
00
00
00
ENDCHAR

STARTCHAR U+006f
ENCODING 111
SWIDTH 1000 0
DWIDTH 16 0
BBX 16 16 0 0
BITMAP
3F
F0
3F
F0
0C
C0
0C
C0
0C
C0
0C
C0
0C
C0
0C
C0
3F
F0
3F
F0
00
00
00
00
00
00
00
00
00
00
00
00
ENDCHAR

STARTCHAR U+0070
ENCODING 112
SWIDTH 1000 0
DWIDTH 16 0
BBX 16 16 0 0
BITMAP
03
00
03
00
3F
F0
3F
F0
0F
C0
0F
C0
30
30
30
30
0F
C0
0F
C0
00
00
00
00
00
00
00
00
00
00
00
00
ENDCHAR

STARTCHAR U+0071
ENCODING 113
SWIDTH 1000 0
DWIDTH 16 0
BBX 16 16 0 0
BITMAP
30
00
30
00
30
00
30
00
30
00
30
00
3F
C0
3F
C0
30
00
30
00
30
00
30
00
30
00
30
00
30
00
30
00
ENDCHAR

STARTCHAR U+0072
ENCODING 114
SWIDTH 1000 0
DWIDTH 16 0
BBX 16 16 0 0
BITMAP
33
00
33
00
33
00
33
00
33
00
33
00
3F
00
3F
00
33
00
33
00
33
00
33
00
33
00
33
00
33
00
33
00
ENDCHAR

STARTCHAR U+0073
ENCODING 115
SWIDTH 1000 0
DWIDTH 16 0
BBX 16 16 0 0
BITMAP
30
00
30
00
30
00
30
00
3F
C0
3F
C0
30
00
30
00
30
00
30
00
3F
C0
3F
C0
30
00
30
00
30
00
30
00
ENDCHAR

STARTCHAR U+0074
ENCODING 116
SWIDTH 1000 0
DWIDTH 16 0
BBX 16 16 0 0
BITMAP
33
00
33
00
33
00
33
00
3F
00
3F
00
33
00
33
00
33
00
33
00
3F
00
3F
00
33
00
33
00
33
00
33
00
ENDCHAR

STARTCHAR U+0075
ENCODING 117
SWIDTH 1000 0
DWIDTH 16 0
BBX 16 16 0 0
BITMAP
0C
00
0C
00
0C
00
0C
00
0C
00
0C
00
FC
00
FC
00
0C
00
0C
00
0C
00
0C
00
0C
00
0C
00
0C
00
0C
00
ENDCHAR

STARTCHAR U+0076
ENCODING 118
SWIDTH 1000 0
DWIDTH 16 0
BBX 16 16 0 0
BITMAP
33
00
33
00
33
00
33
00
33
00
33
00
F3
00
F3
00
33
00
33
00
33
00
33
00
33
00
33
00
33
00
33
00
ENDCHAR

STARTCHAR U+0077
ENCODING 119
SWIDTH 1000 0
DWIDTH 16 0
BBX 16 16 0 0
BITMAP
0C
00
0C
00
0C
00
0C
00
FC
00
FC
00
0C
00
0C
00
0C
00
0C
00
FC
00
FC
00
0C
00
0C
00
0C
00
0C
00
ENDCHAR

STARTCHAR U+0078
ENCODING 120
SWIDTH 1000 0
DWIDTH 16 0
BBX 16 16 0 0
BITMAP
33
00
33
00
33
00
33
00
F3
00
F3
00
33
00
33
00
33
00
33
00
F3
00
F3
00
33
00
33
00
33
00
33
00
ENDCHAR

STARTCHAR U+0079
ENCODING 121
SWIDTH 1000 0
DWIDTH 16 0
BBX 16 16 0 0
BITMAP
03
00
03
00
03
00
03
00
03
00
03
00
7F
F8
7F
F8
00
00
00
00
00
00
00
00
00
00
00
00
00
00
00
00
ENDCHAR

STARTCHAR U+007a
ENCODING 122
SWIDTH 1000 0
DWIDTH 16 0
BBX 16 16 0 0
BITMAP
0C
C0
0C
C0
0C
C0
0C
C0
0C
C0
0C
C0
7F
F8
7F
F8
00
00
00
00
00
00
00
00
00
00
00
00
00
00
00
00
ENDCHAR

STARTCHAR U+007b
ENCODING 123
SWIDTH 1000 0
DWIDTH 16 0
BBX 16 16 0 0
BITMAP
7F
F8
7F
F8
03
00
03
00
03
00
03
00
03
00
03
00
03
00
03
00
00
00
00
00
00
00
00
00
00
00
00
00
ENDCHAR

STARTCHAR U+007c
ENCODING 124
SWIDTH 1000 0
DWIDTH 16 0
BBX 16 16 0 0
BITMAP
7F
F8
7F
F8
0C
C0
0C
C0
0C
C0
0C
C0
0C
C0
0C
C0
0C
C0
0C
C0
00
00
00
00
00
00
00
00
00
00
00
00
ENDCHAR

STARTCHAR U+007d
ENCODING 125
SWIDTH 1000 0
DWIDTH 16 0
BBX 16 16 0 0
BITMAP
00
00
00
00
00
00
00
00
7F
F8
7F
F8
00
00
00
00
00
00
00
00
00
00
00
00
00
00
00
00
00
00
00
00
ENDCHAR

STARTCHAR U+007e
ENCODING 126
SWIDTH 1000 0
DWIDTH 16 0
BBX 16 16 0 0
BITMAP
0C
00
0C
00
0C
00
0C
00
0C
00
0C
00
0C
00
0C
00
0C
00
0C
00
0C
00
0C
00
0C
00
0C
00
0C
00
0C
00
ENDCHAR

STARTCHAR U+007f
ENCODING 127
SWIDTH 1000 0
DWIDTH 16 0
BBX 16 16 0 0
BITMAP
7F
FE
7F
FE
7F
FE
7F
FE
7F
FE
7F
FE
7F
FE
7F
FE
7F
FE
7F
FE
7F
FE
7F
FE
7F
FE
7F
FE
7F
FE
7F
FE
ENDCHAR
ENDFONT
